<svg xmlns="http://www.w3.org/2000/svg" xmlns:xlink="http://www.w3.org/1999/xlink" width="50" height="50" viewBox="0 0 50 50"><defs><style>.a{fill:url(#a);}.b{fill:#fff;}</style><linearGradient id="a" x1="0.276" y1="0.174" x2="0.768" y2="0.837" gradientUnits="objectBoundingBox"><stop offset="0" stop-color="#00fd89"/><stop offset="1" stop-color="#02a540"/></linearGradient></defs><circle class="a" cx="25" cy="25" r="25"/><path class="b" d="M31.636,6.751v0l-.088,0-.088,0v0A10.763,10.763,0,0,0,20.748,17.394c0,7.847,9.421,15.295,10.8,16.353,1.379-1.058,10.8-8.506,10.8-16.353A10.763,10.763,0,0,0,31.636,6.751Zm0,15.223a5.5,5.5,0,1,1,5.62-5.495A5.558,5.558,0,0,1,31.636,21.974Z" transform="translate(-6.348 5.253)"/></svg>