<svg xmlns="http://www.w3.org/2000/svg" id="mountain" width="2880" height="560" viewBox="0 0 2880 560">
  <defs>
    <style>
      .cls-1 {
        fill: #1d2a48;
      }

      .cls-1, .cls-2, .cls-3 {
        fill-rule: evenodd;
      }

      .cls-2 {
        fill: #1d4363;
      }

      .cls-3 {
        fill: #22768e;
      }
    </style>
  </defs>
  <path id="_3" data-name="3" class="cls-1" d="M2592,128l-45.67,38.592-38.09-26.831L2632,16l102.62,102.615L2664,179ZM2042.95,303.449L1992,272l-58.6,38.041L1852.8,251.2,1944,160l72,72,24-24,58.06,58.065ZM1000,280l-36.334,22.949-67.924-54.691L984,160l88,88,16-16,30.4,30.4L1048,315ZM247.837,190.71l-89.58-68.967L232,48l86.569,86.569Z"/>
  <path id="_2" data-name="2" class="cls-2" d="M2240,453L2054.71,317.768,2120,264l40,32L2408,72l128.42,107.313Zm-584,72L1326.84,259.082,1416,184l80,64,160-144,266.08,220.65ZM792,429L568,256,432,349,260.472,204.074,456,24,688,216l80-64L952.431,314.076Z"/>
  <path id="_1" data-name="1" class="cls-3" d="M2880,0L2664,200l-72-56L2240,480,1992,288,1656,552,1224,192,1048,336l-48-40L792,456,568,272,432,376,0,0V560H2880V0Z"/>
</svg>