<svg xmlns="http://www.w3.org/2000/svg" width="64" height="64" viewBox="0 0 64 64">
  <defs>
    <style>
      .cls-1 {
        fill: #fff;
        fill-rule: evenodd;
      }
    </style>
  </defs>
  <path id="icons_perks" class="cls-1" d="M46.661,33.724a48.8,48.8,0,0,0-2.9,5.263,25.17,25.17,0,0,1-5.974-.434A45.342,45.342,0,0,0,35.1,33.724a5.146,5.146,0,0,0-2.373-1.82C29,30.275,22.63,26.546,22.63,26.546S29,22.817,32.725,21.188a5.145,5.145,0,0,0,2.373-1.82c1.939-2.782,5.782-11.361,5.782-11.361s3.843,8.579,5.782,11.361a5.144,5.144,0,0,0,2.373,1.82c3.726,1.629,10.095,5.358,10.095,5.358S52.759,30.275,49.034,31.9A5.145,5.145,0,0,0,46.661,33.724Zm7.461-16.6a3.033,3.033,0,1,1,3.017-3.033A3.025,3.025,0,0,1,54.122,17.123ZM31.035,13.061a2.016,2.016,0,1,1,2-2.016A2.008,2.008,0,0,1,31.035,13.061Zm5.1,25.285c-8.753-1.984-18.755-9.035-18.755-13.364,0-3.7,8.221-3.988,12-3.988-4.376,0-9.753,1.1-9.753,4.363S28.1,36.128,36.131,38.347Zm-5.38-18.739a12.346,12.346,0,0,0-5.126-.75c-6.033,0-11.378,1.547-11.378,6s5.22,8.407,9.128,11.251c16,9.3,27.883,5.454,30.884,4s-1.282-6.719-2.376-7.876c-1.094-1.391.625-.625,0.625-0.625,4.282,2.891,7.5,6.594,7.5,10.376C60.01,49.97,35.721,54.5,27.75,54.5s-8.94-1.188-12-2.625c-1.157-.953-1-4.466-0.5-6.888,0,0,.25-0.172.25,0.25a4.946,4.946,0,0,0,1.25,2.875c8.4,4.183,21.611,2.584,26.633.5-11.472,1.3-21.069-.785-29.008-5.738S3.99,33.357,3.99,29.133c0,4.244,6.237,8.787,13.132,9.351-12.91-10.235-12-14.47-12-16.751,2.626-4.078,8.69-5.25,13.879-5.25s8.534,0.609,12.629,2.625C33.169,20.17,31.626,19.858,30.751,19.608ZM42.63,53.235c6.03,0.384,12.819.462,13.879-4.125l1-.875c0.984,2.974-.339,11.65-17.13,5.751C40.379,53.986,39.033,53.006,42.63,53.235Z"/>
</svg>