<svg xmlns="http://www.w3.org/2000/svg" xmlns:xlink="http://www.w3.org/1999/xlink" width="50" height="50" viewBox="0 0 50 50"><defs><style>.a{fill:url(#a);}.b{fill:#fff;}</style><linearGradient id="a" x1="0.086" y1="0.151" x2="0.805" y2="0.826" gradientUnits="objectBoundingBox"><stop offset="0" stop-color="#f7921e"/><stop offset="1" stop-color="#f9402b"/></linearGradient></defs><g transform="translate(-20 -10)"><g transform="translate(20 10)"><circle class="a" cx="25" cy="25" r="25"/></g><g transform="translate(30 19.076)"><path class="b" d="M28.532,12.328,26.068,3.421A1.826,1.826,0,0,0,24.268,2h-18a1.826,1.826,0,0,0-1.8,1.421L2,12.328v1.042a.9.9,0,0,0,.948.948h1.9V27.584a.9.9,0,0,0,.948.948H24.741a.9.9,0,0,0,.948-.948V14.318h1.9a.9.9,0,0,0,.948-.948V12.328Zm-5.685,7.2a.448.448,0,0,1-.474.474H8.159a.448.448,0,0,1-.474-.474V14.318H22.846Z" transform="translate(0 0.924)"/></g></g></svg>