<svg xmlns="http://www.w3.org/2000/svg" id="frame" width="1080" height="608" viewBox="0 0 1080 608">
  <defs>
    <style>
      .cls-1, .cls-2 {
        fill-rule: evenodd;
      }

      .cls-2 {
        fill: #fff;
      }
    </style>
  </defs>
  <path id="border_black" class="cls-1" d="M12,596V12H1068V596H12ZM1056,24H24V584H1056V24Z"/>
  <path id="border_white" class="cls-2" d="M1078,343l1.7,227.5a3.933,3.933,0,0,1,.3,1.5v32a4,4,0,0,1-4,4h-32c-0.11,0-.21-0.023-0.31-0.032l-673.635.023-17.521-8.77-9.393,6.746-155.141,1-115,1-36.833.016c-0.056,0-.11.017-0.167,0.017H4a4,4,0,0,1-4-4v4H0V472L2,176,0,152V4A4,4,0,0,1,4,0H0L829.893-.006l21.49,10.2,8.41-7.213L1042.1,0H1080V0h-4a4,4,0,0,1,4,4V105.9l-11.68,10.365,8.86,5.754ZM1064,20a4,4,0,0,0-4-4H20a4,4,0,0,0-4,4V588a4,4,0,0,0,4,4H1060a4,4,0,0,0,4-4V20Z"/>
</svg>