<svg xmlns="http://www.w3.org/2000/svg" id="banner" width="808" height="200" viewBox="0 0 808 200">
  <defs>
    <style>
      .cls-1, .cls-2, .cls-3, .cls-4, .cls-5 {
        fill-rule: evenodd;
      }

      .cls-1 {
        opacity: 0.5;
      }

      .cls-2 {
        fill: #fff;
      }

      .cls-3 {
        fill: #ec2e5b;
      }

      .cls-4 {
        fill: #0f1e41;
        opacity: 0.35;
        mix-blend-mode: multiply;
      }

      .cls-5 {
        opacity: 0.66;
      }
    </style>
  </defs>
  <path id="shadow3" class="cls-1" d="M0.006,90.531l48.363,53.3L6.009,198.991,128,195.669V89Z"/>
  <path id="white2" class="cls-2" d="M0,55L61.925,99.973,11,164l117-1V52Z"/>
  <path id="red2" class="cls-3" d="M128,148l-83-1L81,99,36,65l92-1v84Z"/>
  <path id="shadow2" class="cls-4" d="M78,158L97,81,58.509,53.629,128,52h0V163l-56.6.5Z"/>
  <path id="shadow1" class="cls-5" d="M774,36v81l-1,3L128,170V36H774Z"/>
  <path id="white1" class="cls-2" d="M78,4s179.668,1,360.751.007C620.667,3,803,0,803,0l5,7L779,112l-3,6-3,2L84,132l16-17,17-79Z"/>
  <path id="red1" class="cls-3" d="M123,115v-5l16-77L128,22l650-6,5,5-26,80-2,1-397,9-11,9-6-8Z"/>
  <path id="SOLARWOOD_TRAILER" data-name="SOLARWOOD TRAILER" class="cls-2" d="M171.575,74.245l-10.135.177c-4.859,17.968,28.611,17.094,33.025-.053,2.627-10.207-5.025-11.292-12.943-12.025-3.586-.344-6.468-0.932-5.438-4.028,1.6-4.847,12.733-5.506,11.336-.082l9.96-.174c4.769-17.618-27.1-17.062-31.285.546-2.165,8.863,2.913,11.794,11.653,12.28,4.041,0.162,7.274.744,6.538,3.6C183.055,79.27,170.239,79.436,171.575,74.245Zm66.413-9c7.267-28.229-34.8-27.5-42.066.734C188.64,94.269,230.706,93.535,237.988,65.248Zm-31.286.546c3.784-14.7,24.348-15.056,20.564-.359C223.453,80.249,202.889,80.608,206.7,65.794Zm47.092-21.236-10.546.184-10.51,40.827,25.427-.443c0.9-3.5,1.516-5.891,2.417-9.39l-14.881.26C250.175,58.614,248.359,65.671,253.794,44.558Zm33.788,40.089,10.253-.179,0.39-1.516-8.258-39.512-4.511.079-28.71,40.157-0.39,1.516,10.252-.179,3.724-5.174,16.169-.282ZM285.4,70.692l-9.374.163,7.391-10.812Zm42.285-1.144c12.172-7.18,14.212-26.434-1.884-26.211l-17.986.314q-5.269,20.472-10.51,40.827l10.487-.183,3.093-12.015,5.448-.095,3.938,11.892,11.717-.2,0.391-1.516Zm-6.914-6.673-7.5.131L315.9,52.8c2.46-.043,5.053-0.146,7.5-0.131C329.361,52.623,326.455,62.776,320.772,62.875Zm42.417-19.552L350.749,65.14l-0.176,0-0.029-6.909-1.309-15.306-10.6.185-0.406,1.575,4.2,39.409,5.8-.1,11.621-19.77,0.176,0,1.5,19.541,6.035-.105L392.008,43.75l0.405-1.575-10.428.182-9.178,15.488-3.6,6.972-0.176,0-1.386-21.575ZM425.98,61.952c7.267-28.229-34.8-27.5-42.065.733C376.633,90.973,418.7,90.239,425.98,61.952Zm-31.286.545c3.784-14.7,24.348-15.056,20.564-.359C411.445,76.954,390.881,77.312,394.694,62.5Zm73.881-1.271c7.267-28.229-34.8-27.5-42.066.734C419.227,90.248,461.293,89.514,468.575,61.227Zm-31.286.546c3.784-14.7,24.348-15.056,20.564-.359C454.04,76.228,433.476,76.587,437.289,61.773ZM490.361,40.45l-15.467.27-10.51,40.827,15.466-.27C506.6,80.694,517.046,40.1,490.361,40.45Zm-7.428,9.594,4.98-.087c13.065-.228,7.45,21.585-5.615,21.813l-4.98.087Zm44.455-.932-8.107,31.495,10.369-.181,8.108-31.495,12.019-.175c0.81-3.149,1.606-6.241,2.4-9.332l-32.465.531-2.4,9.332Zm43.246,16.2c12.172-7.18,14.212-26.434-1.884-26.211l-17.986.314q-5.271,20.472-10.511,40.827l10.488-.183,3.092-12.015,5.449-.095,3.937,11.892,11.718-.2,0.39-1.516Zm-6.914-6.673-7.5.131c0.841-3.266,1.771-6.882,2.627-10.207,2.461-.043,5.054-0.146,7.5-0.131C572.308,48.386,569.4,58.54,563.72,58.639Zm39.629,20.5,10.253-.179,0.39-1.516-8.258-39.512-4.511.079-28.71,40.157-0.39,1.516,10.252-.179,3.724-5.174,16.17-.282Zm-2.181-13.955-9.374.163,7.391-10.812ZM627.675,69.6l5.81-22.571,7.8-.084,2.343-9.1-22.978.348-2.343,9.1,4.8-.084L617.3,69.781l-5.214.091-2.358,9.157,24.8-.363,2.357-9.157Zm31.848-31.961-10.545.184L638.468,78.65c8.319-.145,18.99-0.3,27.426-0.443l2.418-9.39-16.881.26C655.905,51.7,654.088,58.752,659.523,37.639Zm41.83-.729-25.6.446c-3.484,13.531-7,27.179-10.51,40.827l26.129-.456,2.388-9.273-15.7.274c0.631-2.45,1.232-4.783,1.847-7.174l13.944-.243q1.194-4.637,2.387-9.273l-13.943.243,1.486-5.774,15.174-.265C699.762,43.092,700.573,39.943,701.353,36.91Zm23.5,25.834c12.172-7.18,14.213-26.434-1.884-26.211l-17.986.314q-5.269,20.472-10.51,40.827l10.487-.183,3.093-12.015,5.448-.095,3.938,11.892,11.717-.2,0.391-1.516Zm-6.914-6.673-7.5.131L713.069,46c2.46-.043,5.053-0.146,7.5-0.131C726.529,45.819,723.623,55.972,717.94,56.071Z"/>
</svg>